<mxfile host="65bd71144e">
    <diagram id="C5RBs43oDa-KdzZeNtuy" name="Page-1">
        <mxGraphModel dx="880" dy="523" grid="1" gridSize="10" guides="1" tooltips="1" connect="1" arrows="1" fold="1" page="1" pageScale="1" pageWidth="827" pageHeight="1169" math="0" shadow="0">
            <root>
                <mxCell id="WIyWlLk6GJQsqaUBKTNV-0"/>
                <mxCell id="WIyWlLk6GJQsqaUBKTNV-1" parent="WIyWlLk6GJQsqaUBKTNV-0"/>
                <mxCell id="v3xGJacCqli5HfHjP1lf-3" value="" style="edgeStyle=orthogonalEdgeStyle;rounded=0;orthogonalLoop=1;jettySize=auto;html=1;exitX=0.5;exitY=1;exitDx=0;exitDy=0;" parent="WIyWlLk6GJQsqaUBKTNV-1" source="v3xGJacCqli5HfHjP1lf-9" target="WIyWlLk6GJQsqaUBKTNV-3" edge="1">
                    <mxGeometry relative="1" as="geometry">
                        <mxPoint x="265" y="170" as="sourcePoint"/>
                    </mxGeometry>
                </mxCell>
                <mxCell id="v3xGJacCqli5HfHjP1lf-9" value="" style="ellipse;fillColor=strokeColor;html=1;" parent="WIyWlLk6GJQsqaUBKTNV-1" vertex="1">
                    <mxGeometry x="200" y="130" width="30" height="30" as="geometry"/>
                </mxCell>
                <mxCell id="v3xGJacCqli5HfHjP1lf-16" value="Khách hàng" style="swimlane;whiteSpace=wrap;html=1;" parent="WIyWlLk6GJQsqaUBKTNV-1" vertex="1">
                    <mxGeometry x="80" y="80" width="270" height="480" as="geometry"/>
                </mxCell>
                <mxCell id="WIyWlLk6GJQsqaUBKTNV-3" value="Chọn &quot;Kiểm tra số dư&quot;" style="rounded=1;whiteSpace=wrap;html=1;fontSize=12;glass=0;strokeWidth=1;shadow=0;" parent="v3xGJacCqli5HfHjP1lf-16" vertex="1">
                    <mxGeometry x="75" y="130" width="120" height="40" as="geometry"/>
                </mxCell>
                <mxCell id="v3xGJacCqli5HfHjP1lf-13" value="Chọn tài khoản&amp;nbsp;" style="rounded=1;whiteSpace=wrap;html=1;fontSize=12;glass=0;strokeWidth=1;shadow=0;" parent="v3xGJacCqli5HfHjP1lf-16" vertex="1">
                    <mxGeometry x="75" y="250" width="120" height="40" as="geometry"/>
                </mxCell>
                <mxCell id="v3xGJacCqli5HfHjP1lf-26" value="Hệ thống" style="swimlane;whiteSpace=wrap;html=1;" parent="WIyWlLk6GJQsqaUBKTNV-1" vertex="1">
                    <mxGeometry x="350" y="80" width="270" height="480" as="geometry"/>
                </mxCell>
                <mxCell id="v3xGJacCqli5HfHjP1lf-12" value="Hiển thị danh sách tài khoản&amp;nbsp;" style="rounded=1;whiteSpace=wrap;html=1;fontSize=12;glass=0;strokeWidth=1;shadow=0;" parent="v3xGJacCqli5HfHjP1lf-26" vertex="1">
                    <mxGeometry x="75" y="190" width="120" height="40" as="geometry"/>
                </mxCell>
                <mxCell id="v3xGJacCqli5HfHjP1lf-14" value="Lấy thông tin số dư&amp;nbsp;&lt;div&gt;và hiển thị lên màn hình&lt;/div&gt;" style="rounded=1;whiteSpace=wrap;html=1;fontSize=12;glass=0;strokeWidth=1;shadow=0;" parent="v3xGJacCqli5HfHjP1lf-26" vertex="1">
                    <mxGeometry x="75" y="320" width="120" height="50" as="geometry"/>
                </mxCell>
                <mxCell id="v3xGJacCqli5HfHjP1lf-35" value="" style="ellipse;whiteSpace=wrap;html=1;aspect=fixed;" parent="v3xGJacCqli5HfHjP1lf-26" vertex="1">
                    <mxGeometry x="115" y="415" width="40" height="40" as="geometry"/>
                </mxCell>
                <mxCell id="v3xGJacCqli5HfHjP1lf-33" value="" style="endArrow=classic;html=1;rounded=0;exitX=0.5;exitY=1;exitDx=0;exitDy=0;entryX=0.5;entryY=0;entryDx=0;entryDy=0;" parent="v3xGJacCqli5HfHjP1lf-26" source="v3xGJacCqli5HfHjP1lf-14" target="v3xGJacCqli5HfHjP1lf-35" edge="1">
                    <mxGeometry width="50" height="50" relative="1" as="geometry">
                        <mxPoint x="-120" y="420" as="sourcePoint"/>
                        <mxPoint x="135" y="400" as="targetPoint"/>
                    </mxGeometry>
                </mxCell>
                <mxCell id="v3xGJacCqli5HfHjP1lf-34" value="" style="ellipse;fillColor=strokeColor;html=1;" parent="v3xGJacCqli5HfHjP1lf-26" vertex="1">
                    <mxGeometry x="120" y="420" width="30" height="30" as="geometry"/>
                </mxCell>
                <mxCell id="v3xGJacCqli5HfHjP1lf-27" value="" style="edgeStyle=segmentEdgeStyle;endArrow=classic;html=1;curved=0;rounded=0;endSize=8;startSize=8;entryX=0.5;entryY=0;entryDx=0;entryDy=0;" parent="WIyWlLk6GJQsqaUBKTNV-1" target="v3xGJacCqli5HfHjP1lf-12" edge="1">
                    <mxGeometry width="50" height="50" relative="1" as="geometry">
                        <mxPoint x="280" y="230" as="sourcePoint"/>
                        <mxPoint x="380" y="280" as="targetPoint"/>
                    </mxGeometry>
                </mxCell>
                <mxCell id="v3xGJacCqli5HfHjP1lf-28" value="" style="edgeStyle=segmentEdgeStyle;endArrow=classic;html=1;curved=0;rounded=0;endSize=8;startSize=8;exitX=0;exitY=0.5;exitDx=0;exitDy=0;entryX=0.5;entryY=0;entryDx=0;entryDy=0;" parent="WIyWlLk6GJQsqaUBKTNV-1" source="v3xGJacCqli5HfHjP1lf-12" target="v3xGJacCqli5HfHjP1lf-13" edge="1">
                    <mxGeometry width="50" height="50" relative="1" as="geometry">
                        <mxPoint x="330" y="330" as="sourcePoint"/>
                        <mxPoint x="380" y="280" as="targetPoint"/>
                    </mxGeometry>
                </mxCell>
                <mxCell id="v3xGJacCqli5HfHjP1lf-31" value="" style="edgeStyle=segmentEdgeStyle;endArrow=classic;html=1;curved=0;rounded=0;endSize=8;startSize=8;exitX=1;exitY=0.5;exitDx=0;exitDy=0;entryX=0.5;entryY=0;entryDx=0;entryDy=0;" parent="WIyWlLk6GJQsqaUBKTNV-1" source="v3xGJacCqli5HfHjP1lf-13" target="v3xGJacCqli5HfHjP1lf-14" edge="1">
                    <mxGeometry width="50" height="50" relative="1" as="geometry">
                        <mxPoint x="330" y="330" as="sourcePoint"/>
                        <mxPoint x="380" y="280" as="targetPoint"/>
                    </mxGeometry>
                </mxCell>
                <mxCell id="6" value="Kiểm tra số dư" style="swimlane;whiteSpace=wrap;html=1;" vertex="1" parent="WIyWlLk6GJQsqaUBKTNV-1">
                    <mxGeometry x="80" y="60" width="540" height="500" as="geometry"/>
                </mxCell>
            </root>
        </mxGraphModel>
    </diagram>
</mxfile>